<?xml version="1.0"?><svg xmlns="http://www.w3.org/2000/svg" id="_Слой_2" data-name="Слой 2" viewBox="-0.98 21.01 490.59 446.62" xmlns:c2pa="http://c2pa.org/manifest" fill="#041e3a"><metadata><c2pa:manifest>AAAWgmp1bWIAAAAeanVtZGMycGEAEQAQgAAAqgA4m3EDYzJwYQAAABZcanVtYgAAAEdqdW1kYzJtYQARABCAAACqADibcQN1cm46YzJwYTplNjhkNjNkYy1mZDVmLTQxNmYtYWE5Ny0zNjViZmU4MWMyM2QAAAADl2p1bWIAAAApanVtZGMyYXMAEQAQgAAAqgA4m3EDYzJwYS5hc3NlcnRpb25zAAAAALxqdW1iAAAARGp1bWRjYm9yABEAEIAAAKoAOJtxE2MycGEuaW5ncmVkaWVudC52MwAAAAAYYzJzaIzgiAiyePtrokhjp7vLAIAAAABwY2JvcqNpZGM6Zm9ybWF0bWltYWdlL3N2Zyt4bWxqaW5zdGFuY2VJRHgseG1wOmlpZDo2YTQwZmUxMC01NzkyLTRkY2QtODc4My1iZmYwYTMwYTY1ZjhscmVsYXRpb25zaGlwaHBhcmVudE9mAAAB4mp1bWIAAABBanVtZGNib3IAEQAQgAAAqgA4m3ETYzJwYS5hY3Rpb25zLnYyAAAAABhjMnNogPNXktrIbUKDlvcikd2ufgAAAZljYm9yomdhY3Rpb25zgqJmYWN0aW9ua2MycGEub3BlbmVkanBhcmFtZXRlcnOha2luZ3JlZGllbnRzgaJjdXJseC1zZWxmI2p1bWJmPWMycGEuYXNzZXJ0aW9ucy9jMnBhLmluZ3JlZGllbnQudjNkaGFzaFggxNLL2EEKWyuqYG2JPO3IAG3kmUwwR++2kZ6Tw+7nvaOkZmFjdGlvbngdY29tLmFudGhyb3BpYy5jbGF1ZGUucHJvdmlkZWRqcGFyYW1ldGVyc6F4H2NvbS5hbnRocm9waWMub3JpZ2luLWNvbmZpZGVuY2VndW5rbm93bmtkZXNjcmlwdGlvbnhmQ2xhdWRlIHByb3ZpZGVkIHRoaXMgZmlsZSBhdCB0aGUgcmVxdWVzdCBvZiBhIHVzZXIgYW5kIG1heSBoYXZlIGNyZWF0ZWQgb3IgbW9kaWZpZWQgdGhlIGZpbGUgY29udGVudHMubXNvZnR3YXJlQWdlbnShZG5hbWVmQ2xhdWRlcmFsbEFjdGlvbnNJbmNsdWRlZPUAAADIanVtYgAAAEBqdW1kY2JvcgARABCAAACqADibcRNjMnBhLmhhc2guZGF0YQAAAAAYYzJzaAMfoBNQ2VYmhWADqux3ZZ4AAACAY2JvcqVjYWxnZnNoYTI1NmNwYWRNAAAAAAAAAAAAAAAAAGRoYXNoWCBeh9OffKm5YfiDjCQcUQOZBpfp3BY5CPi0Fa8R6wxT72RuYW1lbmp1bWJmIG1hbmlmZXN0amV4Y2x1c2lvbnOBomVzdGFydBjXZmxlbmd0aBkeBAAAAj5qdW1iAAAAJ2p1bWRjMmNsABEAEIAAAKoAOJtxA2MycGEuY2xhaW0udjIAAAACD2Nib3KlY2FsZ2ZzaGEyNTZpc2lnbmF0dXJleE1zZWxmI2p1bWJmPS9jMnBhL3VybjpjMnBhOmU2OGQ2M2RjLWZkNWYtNDE2Zi1hYTk3LTM2NWJmZTgxYzIzZC9jMnBhLnNpZ25hdHVyZWppbnN0YW5jZUlEeCx4bXA6aWlkOjNlNWFkNjk4LTNiMDgtNDZmNC1hMmZjLTIxOGU4YWY3ZGI1MXJjcmVhdGVkX2Fzc2VydGlvbnODomN1cmx4LXNlbGYjanVtYmY9YzJwYS5hc3NlcnRpb25zL2MycGEuaW5ncmVkaWVudC52M2RoYXNoWCDE0svYQQpbK6pgbYk87cgAbeSZTDBH77aRnpPD7ue9o6JjdXJseCpzZWxmI2p1bWJmPWMycGEuYXNzZXJ0aW9ucy9jMnBhLmFjdGlvbnMudjJkaGFzaFggc80cfqkVIpPFqWHHmNmM9IkjiJu8G6kogOKun969WNOiY3VybHgpc2VsZiNqdW1iZj1jMnBhLmFzc2VydGlvbnMvYzJwYS5oYXNoLmRhdGFkaGFzaFgg283J/1iNUvukmnfaTmFdsfZeMaswQuAprciZ1tJjhpl0Y2xhaW1fZ2VuZXJhdG9yX2luZm+jZG5hbWVvQW50aHJvcGljIEZpbGVzZ3ZlcnNpb25lMS4wLjBrc3BlY1ZlcnNpb25lMi40LjAAABA4anVtYgAAAChqdW1kYzJjcwARABCAAACqADibcQNjMnBhLnNpZ25hdHVyZQAAABAIY2JvctKEWQISogEmGCFZAgowggIGMIIBjaADAgECAhRA5aAK7sI50L64g/oGQgU9Z1UTADAKBggqhkjOPQQDAzBJMRcwFQYDVQQKEw5BbnRocm9waWMsIFBCQzEuMCwGA1UEAxMlQW50aHJvcGljIENvbnRlbnQgQ3JlZGVudGlhbHMgUm9vdCBDQTAeFw0yNjA4MDcxODQzNTZaFw0yODA4MDYxOTQzNTZaMEQxFzAVBgNVBAoTDkFudGhyb3BpYywgUEJDMSkwJwYDVQQDEyBBbnRocm9waWMgQ2xhdWRlIENvbnRlbnQgU2lnbmluZzBZMBMGByqGSM49AgEGCCqGSM49AwEHA0IABJh6CmvLUBgFFNU0vUKlOVtE6djd17L5SuwX0LemFisBM3dkd/3cyjxFA3Qo5S46fX0/ihY0VZ7mfb9KF703t5OjWDBWMA4GA1UdDwEB/wQEAwIHgDAVBgNVHSUEDjAMBgorBgEEAYPoXgIBMAwGA1UdEwEB/wQCMAAwHwYDVR0jBBgwFoAUzlHiBIFOZFsj+OPEz5o+nMHXXMIwCgYIKoZIzj0EAwMDZwAwZAIwMXMdFJ4BetLLVY7ORuE9noqbbAZOZn/aArXyTwFAZfKrPzxF2vPoJNf1+UCdg1XGAjBwX1zd9WGqYkqmL5SFqw1QySjr1zJfpJM9+1rdDwSPLMOPOjKuiXjoU/pUUeG9RwmhY3BhZFkNngAAAAAAAAAAAAAAAAAAAAAAAAAAAAAAAAAAAAAAAAAAAAAAAAAAAAAAAAAAAAAAAAAAAAAAAAAAAAAAAAAAAAAAAAAAAAAAAAAAAAAAAAAAAAAAAAAAAAAAAAAAAAAAAAAAAAAAAAAAAAAAAAAAAAAAAAAAAAAAAAAAAAAAAAAAAAAAAAAAAAAAAAAAAAAAAAAAAAAAAAAAAAAAAAAAAAAAAAAAAAAAAAAAAAAAAAAAAAAAAAAAAAAAAAAAAAAAAAAAAAAAAAAAAAAAAAAAAAAAAAAAAAAAAAAAAAAAAAAAAAAAAAAAAAAAAAAAAAAAAAAAAAAAAAAAAAAAAAAAAAAAAAAAAAAAAAAAAAAAAAAAAAAAAAAAAAAAAAAAAAAAAAAAAAAAAAAAAAAAAAAAAAAAAAAAAAAAAAAAAAAAAAAAAAAAAAAAAAAAAAAAAAAAAAAAAAAAAAAAAAAAAAAAAAAAAAAAAAAAAAAAAAAAAAAAAAAAAAAAAAAAAAAAAAAAAAAAAAAAAAAAAAAAAAAAAAAAAAAAAAAAAAAAAAAAAAAAAAAAAAAAAAAAAAAAAAAAAAAAAAAAAAAAAAAAAAAAAAAAAAAAAAAAAAAAAAAAAAAAAAAAAAAAAAAAAAAAAAAAAAAAAAAAAAAAAAAAAAAAAAAAAAAAAAAAAAAAAAAAAAAAAAAAAAAAAAAAAAAAAAAAAAAAAAAAAAAAAAAAAAAAAAAAAAAAAAAAAAAAAAAAAAAAAAAAAAAAAAAAAAAAAAAAAAAAAAAAAAAAAAAAAAAAAAAAAAAAAAAAAAAAAAAAAAAAAAAAAAAAAAAAAAAAAAAAAAAAAAAAAAAAAAAAAAAAAAAAAAAAAAAAAAAAAAAAAAAAAAAAAAAAAAAAAAAAAAAAAAAAAAAAAAAAAAAAAAAAAAAAAAAAAAAAAAAAAAAAAAAAAAAAAAAAAAAAAAAAAAAAAAAAAAAAAAAAAAAAAAAAAAAAAAAAAAAAAAAAAAAAAAAAAAAAAAAAAAAAAAAAAAAAAAAAAAAAAAAAAAAAAAAAAAAAAAAAAAAAAAAAAAAAAAAAAAAAAAAAAAAAAAAAAAAAAAAAAAAAAAAAAAAAAAAAAAAAAAAAAAAAAAAAAAAAAAAAAAAAAAAAAAAAAAAAAAAAAAAAAAAAAAAAAAAAAAAAAAAAAAAAAAAAAAAAAAAAAAAAAAAAAAAAAAAAAAAAAAAAAAAAAAAAAAAAAAAAAAAAAAAAAAAAAAAAAAAAAAAAAAAAAAAAAAAAAAAAAAAAAAAAAAAAAAAAAAAAAAAAAAAAAAAAAAAAAAAAAAAAAAAAAAAAAAAAAAAAAAAAAAAAAAAAAAAAAAAAAAAAAAAAAAAAAAAAAAAAAAAAAAAAAAAAAAAAAAAAAAAAAAAAAAAAAAAAAAAAAAAAAAAAAAAAAAAAAAAAAAAAAAAAAAAAAAAAAAAAAAAAAAAAAAAAAAAAAAAAAAAAAAAAAAAAAAAAAAAAAAAAAAAAAAAAAAAAAAAAAAAAAAAAAAAAAAAAAAAAAAAAAAAAAAAAAAAAAAAAAAAAAAAAAAAAAAAAAAAAAAAAAAAAAAAAAAAAAAAAAAAAAAAAAAAAAAAAAAAAAAAAAAAAAAAAAAAAAAAAAAAAAAAAAAAAAAAAAAAAAAAAAAAAAAAAAAAAAAAAAAAAAAAAAAAAAAAAAAAAAAAAAAAAAAAAAAAAAAAAAAAAAAAAAAAAAAAAAAAAAAAAAAAAAAAAAAAAAAAAAAAAAAAAAAAAAAAAAAAAAAAAAAAAAAAAAAAAAAAAAAAAAAAAAAAAAAAAAAAAAAAAAAAAAAAAAAAAAAAAAAAAAAAAAAAAAAAAAAAAAAAAAAAAAAAAAAAAAAAAAAAAAAAAAAAAAAAAAAAAAAAAAAAAAAAAAAAAAAAAAAAAAAAAAAAAAAAAAAAAAAAAAAAAAAAAAAAAAAAAAAAAAAAAAAAAAAAAAAAAAAAAAAAAAAAAAAAAAAAAAAAAAAAAAAAAAAAAAAAAAAAAAAAAAAAAAAAAAAAAAAAAAAAAAAAAAAAAAAAAAAAAAAAAAAAAAAAAAAAAAAAAAAAAAAAAAAAAAAAAAAAAAAAAAAAAAAAAAAAAAAAAAAAAAAAAAAAAAAAAAAAAAAAAAAAAAAAAAAAAAAAAAAAAAAAAAAAAAAAAAAAAAAAAAAAAAAAAAAAAAAAAAAAAAAAAAAAAAAAAAAAAAAAAAAAAAAAAAAAAAAAAAAAAAAAAAAAAAAAAAAAAAAAAAAAAAAAAAAAAAAAAAAAAAAAAAAAAAAAAAAAAAAAAAAAAAAAAAAAAAAAAAAAAAAAAAAAAAAAAAAAAAAAAAAAAAAAAAAAAAAAAAAAAAAAAAAAAAAAAAAAAAAAAAAAAAAAAAAAAAAAAAAAAAAAAAAAAAAAAAAAAAAAAAAAAAAAAAAAAAAAAAAAAAAAAAAAAAAAAAAAAAAAAAAAAAAAAAAAAAAAAAAAAAAAAAAAAAAAAAAAAAAAAAAAAAAAAAAAAAAAAAAAAAAAAAAAAAAAAAAAAAAAAAAAAAAAAAAAAAAAAAAAAAAAAAAAAAAAAAAAAAAAAAAAAAAAAAAAAAAAAAAAAAAAAAAAAAAAAAAAAAAAAAAAAAAAAAAAAAAAAAAAAAAAAAAAAAAAAAAAAAAAAAAAAAAAAAAAAAAAAAAAAAAAAAAAAAAAAAAAAAAAAAAAAAAAAAAAAAAAAAAAAAAAAAAAAAAAAAAAAAAAAAAAAAAAAAAAAAAAAAAAAAAAAAAAAAAAAAAAAAAAAAAAAAAAAAAAAAAAAAAAAAAAAAAAAAAAAAAAAAAAAAAAAAAAAAAAAAAAAAAAAAAAAAAAAAAAAAAAAAAAAAAAAAAAAAAAAAAAAAAAAAAAAAAAAAAAAAAAAAAAAAAAAAAAAAAAAAAAAAAAAAAAAAAAAAAAAAAAAAAAAAAAAAAAAAAAAAAAAAAAAAAAAAAAAAAAAAAAAAAAAAAAAAAAAAAAAAAAAAAAAAAAAAAAAAAAAAAAAAAAAAAAAAAAAAAAAAAAAAAAAAAAAAAAAAAAAAAAAAAAAAAAAAAAAAAAAAAAAAAAAAAAAAAAAAAAAAAAAAAAAAAAAAAAAAAAAAAAAAAAAAAAAAAAAAAAAAAAAAAAAAAAAAAAAAAAAAAAAAAAAAAAAAAAAAAAAAAAAAAAAAAAAAAAAAAAAAAAAAAAAAAAAAAAAAAAAAAAAAAAAAAAAAAAAAAAAAAAAAAAAAAAAAAAAAAAAAAAAAAAAAAAAAAAAAAAAAAAAAAAAAAAAAAAAAAAAAAAAAAAAAAAAAAAAAAAAAAAAAAAAAAAAAAAAAAAAAAAAAAAAAAAAAAAAAAAAAAAAAAAAAAAAAAAAAAAAAAAAAAAAAAAAAAAAAAAAAAAAAAAAAAAAAAAAAAAAAAAAAAAAAAAAAAAAAAAAAAAAAAAAAAAAAAAAAAAAAAAAAAAAAAAAAAAAAAAAAAAAAAAAAAAAAAAAAAAAAAAAAAAAAAAAAAAAAAAAAAAAAAAAAAAAAAAAAAAAAAAAAAAAAAAAAAAAAAAAAAAAAAAAAAAAAAAAAAAAAAAAAAAAAAAAAAAAAAAAAAAAAAAAAAAAAAAAAAAAAAAAAAAAAAAAAAAAAAAAAAAAAAAAAAAAAAAAAAAAAAAAAAAAAAAAAAAAAAAAAAAAAAAAAAAAAAAAAAAAAAAAAAAAAAAAAAAAAAAAAAAAAAAAAAAAAAAAAAAAAAAAAAAAAAAAAAAAAAAAAAAAAAAAAAAAAAAAAAAAAAAAAAAAAAAAAAAAAAAAAAAAAAAAAAAAAAAAAAAAAAAAAAAAAAAAAAAAAAAAAAAAAAAAAAAAAAAAAAAAAAAAAAAAAAAAAAAAAAAAAAAAAAAAAAAAAAAAAAAAAAAAAAAAAAAAAAAAAAAAAAAAAAAAAAAAAAAAAAAAAAAAAAAAAAAAAAAAAAAAAAAAAAAAAAAAAAAAAAAAAAAAAAAAAAAAAAAAAAAAAAAAAAAAAAAAAAAAAAAAAAAAAAAAAAAAAAAAAAAAAAAAAAAAAAAAAAAAAAAAAAAAAAAAAAAAAAAAAAAAAAAAAAAAAAAAAAAAAAAAAAAAAAAAAAAAAAAAAAAAAAAAAAAAAAAAAAAAAAAAAAAAAAAAAAAAAAAAAAAAAAAAAAAAAAAAAAAAAAAAAAAAAAAAAAAAAAAAAAAAAAAAAAAAAAAAAAAAAAAAAAAAAAAAAAAAAAAAAAAAAAAAAAAAAAAAAAAAAAAAAAAAAAAAAAAAAAAAAAAAAAAAAAAAAAAAAAAAAAAAAAAAAAAAAAAAAAAAAAAAAAAAAAAAAAAAAAAAAAAAAAAAAAAAAAAAAAAAAAAAAAAAAAAAAAAAAAAAAAAAAAAAAAAAAAAAAAAAAAAAAAAAAAAAAAAAAAAAAAAAAAAAAAAAAAAAAAAAAAAAAAAAAAAAAAAAAAAAAAAAAAAAAAAAAAAAAAAAAAAAAAAAAAAAAAAAAAAAAAAAAAAAAAAAAAAAAAAAAAAAAAAAAAAAAAAAAAAAAAAAAAAAAAAAAAAAAAAAAAAAAAAAAAAAAAAAAAAAAAAAAAAAAAAAAAAAAAAAAAAAAAAAAAAAAAAAAAAAAAAAAAAAAAAAAAAAAAAAAAAAAAAAAAAAAAAAAAAAAPZYQIn8sOel9JLJvTe+YIOoZM86n/d75ifJ1CriTK0YesNrgavcPHtKXwPZWPUv7/yBnVWcbq21TirxEa+mguLA4Ho=</c2pa:manifest></metadata><defs></defs><g id="_Слой_1-2" data-name="Слой 1"><g><path d="M249.11,62.59c-.35,5.82,1.4,9.5,6.17,12.66,5.99,3.97,11,1.91,17.43,4.02,5.9,1.94,6.47,4.15,8.52,9.48,4.98,12.94,8.47,26.9,13.49,39.74,4.26,10.88,6.74,11.61,15.02,18.68,8.34,7.13,16.83,15.43,25.52,21.97,4.51,3.4,8.17,4.49,12.72,7.2,5.72,3.41,8.8,6.97,10.61,13.52-.62.82-.66-.03-.88-.29-.7-.8-1.17-2.07-2.18-2.58.82,2.18.88,4.19.76,6.51-.51,0-.82-1.13-.95-1.54-.66-2.04-.64-3.89-2.69-5.35-.59,1.04.67,1.88.93,2.9.31,1.22.51,3.54.22,4.76-1.21-1.41-1.01-3.24-1.9-5-1.04-2.05-7.34-9.04-9.8-7.46-.64.41-.26.76-.07,1.24.98,2.49,4.78,3.87,4.11,7-3.7-3.02-9.04-6.65-11.11-11.11-.74-1.6-1.04-4.86-2.12-5.92-13.39-8.49-30.53-14.09-41.16-26.24-9.66-11.05-13.05-29.92-19.44-42.99-.41-.83-2.33-4.13-3.15-4.14-.65-.04-.86.42-.96.97-.65,3.63.63,8.55-1.24,12.36-4.75,1.55-9.84.82-13.89,4.32-2.43-1.66-6.41-4.3-9.41-3.68-2.17.45-5.35,2.23-7.12,3.62-4.14-2.93-8.71-3.11-13.54-3.99-2.46-4.12-.99-9.09-1.92-13.59-1.29-1.22-4,4.51-4.4,5.37-6.05,13.27-10.08,32.77-20.3,43.27-10.75,11.04-26.56,16.45-39.45,24.5-1.72,1.43-1.59,4.44-2.66,6.54-.87,1.71-3.72,4.99-5.19,6.3-.59.53-5.24,4.26-5.56,4.4-.73.31-.62-.41-.49-.88.75-2.77,4.67-4.47,4.52-7.54-2.55-.41-5.04,1.74-6.71,3.44-2.62,2.66-4.08,5.52-4.78,9.2-.67.09-.36-.87-.38-1.33-.03-.83-.1-1.87.02-2.66.22-1.41,1.79-2.62,1.32-4.04-.45.93-1.86,1.96-2.2,2.77-.59,1.43-.1,3.57-1.81,4.5-.11-2.21.25-4.48,1.14-6.51l-2.87,3.06c-.3.06-.23-.35-.19-.57.35-2.37,3.04-7.31,4.78-9.01,5.15-5.04,13.11-7.25,19.14-11.88s12.33-10.84,18.41-16.06c10.28-8.82,16.24-10.88,21.54-24.42,4.38-11.19,7.49-23.06,11.57-34.38,2.53-7.03,2.68-12.2,10.73-14.54,6.97-2.03,12.1.12,18.18-4.8,3.98-3.22,5.4-6.61,4.73-11.8-13.67-6.04-14.48-29.03-3.39-37.79,6.11-4.83,14.03-3.18,18.7,2.75,7.84,9.94,6.34,29.75-6.38,35.04Z"></path><path d="M250.2,128.01c.58.16.63-.15.96-.38,1.45-1.01,2.55-2.57,4.39-3.66,4.93-2.92,11.99-3.89,17.45-2.11s9.35,6.54,4.4,11.33c-.38.36-3.78,2.99-3.44,1.54.25-1.06,1.15-2.25,1.14-3.48-.01-4.11-8.84-3.63-10.93-6.69,0,2.41.55,4.33-.62,6.65-2.13,4.23-4.16-1.68-6.07-2.28-3.66-1.14-6.99,4.44-8.07,7.3-6.54,17.45,14.69,17.02,25.58,20.77,22.68,7.8,25.95,31.35,17,51.3l-3.51,5.49c5.8-1.6,19.63-.2,24.48,3.28,1.86,1.33,3.47,4.27.2,4.4-.81.03-2.64-.86-2.47.17,2.07,1.14,8.28,6.16,6.16,8.85-1.67,2.11-9.58-1.31-9.99-.99,1.94,2.48,4.22,5.7,4.21,9,0,1.35-.78,4.61-2.51,3.28-.66-.51-3.63-6.01-4.77-7.49-5.04-6.51-12.53-10.99-20.67-12.46-.01-.51,1.14-.82,1.54-.94,6.99-2.15,13.9.57,20.58,1.62.41.06,1.33.41,1.24-.28-10.88-5.22-23.32-4.42-34.85-1.92l3.25-4.98c.76-.89.14-5.23.78-5.36s2.2.68,2.65,1.17c1.09,1.19.54,2.92,1.74,3.81,1.17-3.26.85-5.86-1.53-8.42,4.11-1.07,7.7,1.41,7.85,5.74,5.05-4.4,9.26-15.03,3.45-20.29-2.02-1.83-8.37-3.25-7.87-6.31.23-1.44,4.06-1.75,5.38-1.73.78-.67-2.91-2.64-3.45-2.86-3.19-1.28-6.05-1.3-9.07.49-1.36.81-2.06,2.43-3.56,2.76,0-7.79,4.9-12.42,12.73-11,.45.08,3.89,1.72,3.35.48-1.34-3.06-7.18-3.89-10.1-3.6-2.99.3-5.78,2.38-8.66,1.48-.14-1.99,2.11-2.47,3.45-3.25.5-.29.96.07.75-.95-3.71-.69-7.04,2.02-10.54,1.94-4.92-.11-3.3-3.86-.06-5.46,6.51-3.22,16.97-1.03,22.67,3.13.51-.77-1.28-2.06-1.98-2.61-10.65-8.43-27.29-4.69-37.47-13.84-9.92,8.9-25.01,5.64-36.09,12.92-.72.48-3.29,2.35-3.55,2.96-.2.46.1.75.56.56.76-.3,2.3-1.69,3.51-2.24,5.24-2.39,13.46-3.49,18.78-.89,1.49.73,4.06,2.59,2.83,4.49-2.03,3.14-10.28-2.08-13.43-.98-.21,1.02.26.66.75.95,1.23.72,2.77.92,3.67,2.12.33,1.43-1.1,1.6-2.22,1.45-4.8-.66-10.64-4.27-15.42.46-3.12,3.08.82,1.19,2.09.94,7.9-1.54,13.16,3.41,12.66,11.32-3.9-4.05-7.29-5.78-12.84-3.46-.48.2-4.01,2.03-3.24,2.69,2.37,0,7.79.65,4.78,3.83-1.99,2.1-5.34,2.38-7.42,4.45-5.21,5.18-1.31,15.79,3.6,20.06.41-4.3,3.66-6.59,7.85-5.74-1.89,2.34-3.04,6.11-.77,8.42-.27-2.59,1.49-5.15,4.21-4.98-.6,4.07.88,6.77,3.07,9.95-9.02-1.26-17.96-2.56-26.97-.35-.58.14-7.86,2.47-7.11,3.03,3.99-.64,7.95-2.04,12.05-2.31.77-.05,12.14-.06,10.93,1.55-7.95,1.52-15.23,5.8-20.29,12.08-1.26,1.57-4.39,7.33-5.16,7.87-.34.23-.54.54-.98.19-2.59-2.68-.98-6.89.7-9.68.64-1.06,1.82-1.59,1.99-2.8-3.19.67-6.83,2.66-9.98.89-1.46-2.29,1.88-5.41,3.47-6.84.47-.42,4.29-2.57,1.9-2.32-.96.1-1.92.62-2.89-.13-.92-.87-.55-1.79.05-2.7,2.67-4.02,17.57-5.58,22.19-5.37.59.03,4.06,1.08,4.02.19-.01-.23-2.39-2.58-2.98-3.52-10.58-16.92-6.36-43.45,13.33-51.62,7.24-3,23.57-4.5,27.77-10.14,3.69-4.96,1.26-14.87-3.75-18.1-4.75-3.07-4.8,1.47-7.19,2.58-2.9,1.35-3.11-4.15-3.08-5.77.01-.51.84-2.54-.17-2.08-.72.33-1.72,1.44-3,1.98-4.61,1.96-10.48,1.32-6.39,8.55-1.89.18-4.69-2.93-5.18-4.78-.81-3.03.7-7.32,3.65-8.63,6.89-3.07,19.24,1.53,24.71,6.32.48,0,2.59-7.91,6.3-5.52,1.76,1.13,3.11,3.48,3.47,5.53Z"></path><path d="M64.05,403.53l-.36,2.13h44.81l-.02-2.28c-11.38-1.7-15.69-15.04-19.96-24.27-10.86-23.43-20.6-47.41-31.37-70.88-.56-.91-2.06-.91-2.62,0l-35.58,80.45c-3.86,6.7-7.31,12.16-14.93,14.94-1.08.4-2.49.37-3.42.8-1.24.57-.36,1.51.84,1.64,3.7.42,7.51-.67,11.11-.8,8.75-.33,17.5.72,26.25.4l-.38-2.12c-4.76-1.27-10.44-2.61-13.19-7.11-3.37-5.5-1.28-11.55.86-17.08.43-1.11,3.72-8.61,4.08-8.94,1.41-1.26,32.07.2,36.4-.41l.6.27c2.22,7.31,7.62,15.04,9.35,22.35,2.15,9.05-5.37,10.28-12.48,10.9ZM25.01,402.22c-4.72.11-9.6.01-14.17,1.15-.54-.51,4.29-5.17,4.75-5.78,1.75-2.27,3.42-5.12,4.82-7.62,1.11.24.35,1.8.43,2.44.15,1.23.42,3.01.83,4.15.34.96,3.7,5.33,3.33,5.67ZM31.91,366.99l16.85-38.3,16.86,38.3H31.91ZM79.61,397.27c.34-1.43.28-3.13-.1-4.55l-29.45-66.69,3.86-9.58,32.41,72.51c2.36,4.41,4.65,9.25,8.57,12.5.38.21-.35.77-.39.77h-17.81c.68-1.74,2.45-3.06,2.9-4.95Z"></path><path d="M171.52,400.29c-.58-.9-1.74-4.58-1.74-5.53v-86.74l-22.6,2.68c-.31,1.93,2.01,1.66,3.33,2.22,2.43,1.04,3.35,2.07,4.25,4.56.17.49.85,2.7.85,2.98v32.36c-2.37-.99-4.36-2.77-6.7-3.83-20.75-9.44-42.15,9.68-41.57,30.85.57,21.15,22.24,33.52,40.95,23.68,2.56-1.34,4.76-3.66,7.32-4.74v6.89h22.02l.56-1.9c-2.27-.31-5.39-1.49-6.67-3.48ZM118.5,357.26c2.33-2.38,5.74-5.01,8.77-6.35-11.86,10.61-14.95,30.79-6.67,44.39,2.65,4.36,6.05,6.75,10.12,9.6-22.83-4.76-27.7-31.79-12.22-47.64ZM136.06,402.81c-18.95-4.53-18.15-51.17.69-53.72,7.56-1.02,13.41,3.12,18.66,7.95l.12,36.49c-4.83,5.19-11.88,11.09-19.47,9.28ZM157.9,402.6v-84.83c0-2.63-2.76-3.48-4.35-4.84-.41-.35-.92-.39-.25-.91l11.11-.95v87.13c0,1.61,3.02,3.19,3.83,4.4h-10.34Z"></path><path d="M415.81,397.26c-3.56-15.55,6.86-42.16-12.81-49.61-13.37-5.06-23.63,3.84-31.78,13.21v-13.6c0-.19-.63-.63-.95-.59l-21.64,2.7.39,1.33c6.72,1,7.7,5.51,8.05,11.48.52,8.74.48,20.77,0,29.52-.35,6.44-1.17,10.88-8.41,12.08l-.04,1.88h30.64l-.04-1.88c-4.45-.8-7.28-2.96-7.91-7.6-1.29-9.57.74-21.47-.08-31.29,4.51-7.31,19.68-21.36,27.34-10.53,1.79,2.53,2.34,6.69,2.53,9.73.52,8.48.63,21.49,0,29.9-.22,2.9-.86,5.98-3.27,7.83-1.06.81-4.84,2.05-5,2.28-.4.58.03,1.56.41,1.56h29.87l.56-1.9c-4.04-.53-6.92-2.4-7.86-6.51ZM369.3,402.6h-13.4c.38-1.85,3.19-2.06,3.07-4.4v-42.54c.39-1.58-4.58-4.19-4.6-4.58.37-.6.76-.5,1.33-.58,3.06-.43,6.21-.42,9.24-1.12.32-.09.92.39.92.56v49.02c.27,1.26,2.09,2.08,2.96,2.76.32.25.7-.01.48.88ZM399.94,402.6c2.22-2.4,3.14-2.86,3.44-6.32.81-9.22.6-25.64-.38-34.84-.67-6.31-2.99-11.41-9.95-12.07-1.2-.96,2.5-.8,2.89-.78,4.63.22,8.76,2.46,11.21,6.4,5.42,8.73,1.64,31.05,2.75,42.05.33,3.26,1.83,3.45,3.82,5.56h-13.79Z"></path><path d="M192.75,211.5c-9.72-2.11-27.34,3.51-27.96,15.14-.09,1.74,1.15,5.36-1.14,6.51-3.26,1.63-3.33-6.06-2.69-7.86-.62-.14-.78.21-1.16.56-13.92,12.92-4.44,36.43-17.8,47.3-7.34,5.97-22.65,5.29-25.58-5.04-1.29-4.55-.3-11.73,4.89-13.36,6.38-2.01,1.42,4.77,1.07,6.81-.14.8-.5,5.77.67,5.27.85-.36,1.28-2.26,2.66-2.71,4.15-1.33,1.41,3.11,1.19,4.65-.66,4.65,6.46,4.54,9.48,3.34,2.94-1.17-.13-1.37-1.43-2.25-6.7-4.56.28-15.95,6.48-9.93-6.75.8-4.55,10.68,1.13,6.49,4.53-3.35,5.44-14.82,5.58-20.09-.62-.92-2.34,1.08-3.06,1.55-4.44,2.86-9.72,5.15-15.02,3.13-2.56-.97-5.22-4.27-1.26-5.06.31-.35-2.25-4.22-2.6-5.25-.79-2.35-.93-4.54-.21-6.93.64-2.1,2.45-4.7,4.89-4.64,3.52.08.45,5.17.01,6.86-1.61,6.21.6,10.67,7.47,10.35l-2.46-2.32c-2.3-2.28-1.36-6.47,2.17-6.04,4.28.52,4.58,8.13,10.03,1.43,3.08-3.78,4.63-9.21,7.88-12.99-3.86,1.37-7.19,1.61-11.1.18s-8.7-5.66-.77-4.4c-.68-2.97-1.77-5.18-.85-8.32,1.48-5.06,11.3-7.1,11.03-.09-.39.52-1.79.3-2.53.54-3.66,1.2-4.11,6.46-.64,8.32,4.83,2.59,9.08-3.88,12.34-6.57,3.43-2.83,7.52-5.62,12.05-6.14.17-1-.14-.59-.55-.8-.88-.44-1.68-.47-2.54-1.29-1.96-1.86-1.4-3.81,1.07-4.7,5.3-1.92,12.87,2.61,16.9,5.88.37.3,2.81,2.04,2.34,2.45Z"></path><path d="M315.3,209.97c4.4.45,8.32,3.01,11.67,5.76s8.36,10.08,13.24,6.71c4.06-2.8,1.42-9.08-3.47-8.25-.94-5.82,5.97-5.95,9.21-2.89s2.09,7.22.76,10.93c8.73-1.23,2.19,3.8-1.83,4.87s-5.42.25-9.11-.64c-.58-.14-.64,0-.55.55,2.84,2.69,7.25,15.09,11.29,15.16,2.66.05,3.99-4.81,7.49-4.09,2.97.61,2.69,3.77,1.13,5.78-.75.97-2.19,1.31-2.29,2.49,6.75.25,8.62-4.49,7.16-10.42-.37-1.51-2.74-5.58-.66-6.63s4.6,1.79,5.29,3.53c1.12,2.84.89,5.99-.23,8.81-.65,1.63-2.27,2.68-2.37,4.32,5.09,1.23.02,5.15-2.96,5.66-3.25.55-6.74-.25-9.68-1.62l-6.5-4.03c-.45,4.88,1.44,19.68,6.88,21.27,5.03,1.47,5.11-6.64.22-7.09-.96-.61,1.47-1.73,1.99-1.84,5.62-1.16,9.31,7.14,4.32,11.22-1.03.84-2.34,1.02-3.07,2.09,2.68,1.33,9.42,2.11,10.82-1.26.73-1.76-1.65-4.21-.87-6.4.78-.06,1.46-.01,2.2.29,1.42.59,1.71,2.49,3.16,2.77.48-2.7.45-4.41-.47-7-.6-1.69-3.8-5.79.24-5.62,4.64.19,6.85,6.19,6.76,10.15-.33,14.38-20.21,15.73-28.18,6.69-10.29-11.67-2.79-30.56-14.37-43.84-.33-.38-2.24-2.54-2.67-2.12.83,1.73.63,8.83-2.31,7.89-2.38-.76-1.32-5.24-1.52-7.31-1.09-10.92-18.63-16.55-27.95-14.37,3.73-4.49,14.04-10.91,19.8-8.12,2.56,1.24,2,3.61-.08,5.06-.81.57-2.06.51-2.49,1.52Z"></path><path d="M204.43,278.14c-1.86.31-4.76,2.54-5.93,4.03-2.84,3.63-2.7,7.78-1.54,12.05-6.11-2.37-11.36-2.93-14.24,3.95-.51,1.23-.39,2.69-1.27,3.71-3.95-6.31-.87-14.6,6.7-15.7.74-.88-2.29-2.85-3.01-3.3-2.84-1.77-4.4-2.53-7.45-.46-4.97,3.37-.9,4.98-.99,8.94-.02.74-.89,4.42-1.94,3.64-2.91-6.39-1.31-11.3,4.21-15.31-4.96-1.9-12.46-2.02-14.57,4-1.24,3.54,1.08,3.18,2.7,5.38s1.41,4.58.76,7.08c-.77.55-3.19-3.27-3.51-3.95-2.25-4.78-1.45-9.99,2.37-13.66-4.34.69-8.94,1.83-10.64,6.4-1.3,3.49.25,2.74,1.83,4.52,1.95,2.19,2.11,4.64,1.91,7.46-.37.42-2.77-2.1-3.06-2.49-2.45-3.35-2.88-7.53-1.15-11.3-.69-.84-7.56,7.48-7.66,9.42-.05,1.03,1.89,2.78,2.39,4.09,1.29,3.39-.3,6.1.29,9.47-7.26-5.16-4.23-16.49.96-22.22,7.37-8.14,19.62-10.34,29.68-6.31,1,.4,6.2,3.55,6.52,3.25-6.24-20.41,3.35-52.23,28.53-52.25,9.39,0,22.62,3.85,19.72,15.87-.46.54-4.09-3.5-4.42-4.19-1.44-2.99.85-4.75-2.66-7.3-3.13-2.27-9.03-2.64-12.83-2.68-.16.87.04.61.49.85,1.11.61,2.51.82,3.7,1.66,3.35,2.35,4.49,6.17,3.66,10.13-.45-.01-4.18-3.03-4.54-3.54-1.85-2.69.71-5.65-3.1-7.58-5.71-2.9-14.32,2.32-17.82,6.91,8.59-1.55,15.74-.11,18.76,8.81-2.92-.25-7.66-.44-9.74-2.7-1.49-1.62-1.12-3.49-3.66-4.38-8.87-3.12-12.4,8.25-13.79,14.74,4.81-6.82,15.78-7.83,20.67-.58-.13.58-5.79,1.76-6.68,1.74-2.39-.06-4.89-1.86-7-2.22-8.24-1.4-9.29,9.42-8.14,15.23,2.85-3.88,5.83-7.57,11.24-7.24,1.06.06,5.17,1.12,5.61,2.07.27.59-.8.87-1.2,1.08-3.54,1.84-4.65,1.33-8.18,1.37-8.21.09-7.41,10-4.78,15.35,1.02-.79.93-2.23,1.66-3.5,3.35-5.79,13.34-5.5,17.1-.33-1.82.21-4.2-.29-5.94,0Z"></path><path d="M302.28,261.86c-.22-1.74-1.85-5.6-3.25-6.71-4.14-3.29-8.2,1.1-12.28,1.17-2.06.03-4.66-1.1-6.68-1.55-.58-.76,2.99-3.18,3.57-3.51,6.16-3.45,12.56-1.49,17.1,3.51-1.32-6.49-5.07-17.52-13.8-14.38-2.44.88-2.6,4.15-4.61,5.35-1.09.64-8.13,2.22-8.78,1.75,3.39-8.8,9.94-10.42,18.76-8.81.18-.74-.27-.74-.64-1.08-4.25-3.86-10.51-8.43-16.59-6-4.31,1.72-1.67,4.62-3.51,7.6-.43.71-4.06,3.68-4.73,3.7-.8-3.66.48-7.96,3.66-10.13,1.48-1,3.52-1.06,4.57-2.51-3.67-.25-13.46.8-15.03,4.69-.83,2.07.25,3.35-1.28,5.99-3.38,5.84-4.83,3.24-3.89-2.36.83-4.98,6.38-7.62,10.72-8.82,30.38-8.37,44.98,26.58,37.45,51.04,3.02-1.04,5.37-2.96,8.51-3.93,15.26-4.72,35.13,5.14,32.82,22.86-.25,1.88-1.9,5.98-4.18,5.96.9-3.19-.93-6.21.61-9.53.44-.95,1.66-1.89,1.91-2.71.83-2.69-4.82-8.62-6.93-10.35-.28,1.66.63,3,.6,4.79-.06,3.4-2.04,7.79-5.39,8.99-.16-2.54.12-4.86,1.71-6.9s3.17-1.28,2.33-4.62c-1.08-4.28-6.61-6.4-10.56-6.86.59,1.56,1.76,2.14,2.48,3.83,2.1,4.92.31,10.25-3.44,13.77-1.73-2.2-1.07-5.42.57-7.46,1.87-2.33,4.18-1.82,1.84-6.06-2.83-5.12-8.9-4.61-13.72-2.94-.54.72,2.04,1.86,2.49,2.3,3.45,3.35,3.66,9.02,1.15,13.02-.59.3-1.2-1.5-1.25-1.81-.22-1.28-.23-3.47.09-4.71.22-.83,1.35-1.99,1.27-2.8-.21-2.15-4.5-4.65-6.62-4.49-1.24.09-7.6,4.06-6.71,5,7.47.84,11.1,9.92,6.51,15.7-1.15-8.9-7.5-11.16-15.32-7.66,1.59-4.35,1.11-10.14-2.49-13.4-.63-.57-4.36-2.68-4.98-2.68h-5.94c5.03-6.21,17.31-5.22,18.39,3.83.74.57,2.23-5.96,2.29-6.71.19-2.44-.08-5.07-1.95-6.85-2.96-2.83-6.18-1.04-9.63-1.86-1.63-.39-2.9-1.42-4.5-1.82-.19-.89.12-.61.49-.85,6.11-3.95,13-.91,15.97,5.27l.77-.39c-.19-2.19.27-4.76,0-6.89Z"></path><path d="M242.06,367.28c-4.1-23.81-35.9-27.46-50.06-10.43-12.7,15.27-9.3,41.68,10.8,48.54,14.42,4.92,29.05-.41,38.9-11.4l-1.27-1.72c-7.29,7.54-18.72,13.4-28.92,7.85-9.25-5.03-11.87-17.62-11.48-27.39h41.94c.99,0,.23-4.65.09-5.46ZM207.93,402.94l7.8,2.34c-9.02.46-18.13-2.99-23.52-10.37-10.04-13.74-5.85-33.47,8.08-42.79.72-.48,1.51-1.21,2.42-1.21-13.94,11.94-11.91,44.19,5.22,52.03ZM200.03,370.43c.37-10.1,3.34-22.69,15.91-21.85,11.16.75,12.37,13.03,12.43,21.85h-28.34ZM230.67,370.43v-6.32c0-1.42-1.34-6.16-1.96-7.61-1.19-2.76-3.4-4.9-5.31-7.13,8.87,2.74,13.44,12.27,13.4,21.06h-6.13Z"></path><path d="M487.91,367.29c-7.73-30.5-51.64-26.3-56.85,4.58-5.02,29.76,25.76,45.35,48.9,28.6.63-.45,8.47-6.86,7.68-7.44-3.65.2-6.54,3.94-9.7,5.81-2.72,1.6-6.89,3.11-10.03,3.38-16.6,1.42-22.37-15.82-22.02-29.48,10.28.23,20.56-.72,30.85-.4.82.02,1.55.36,2.29.39,3.11.13,6.22.31,9.32.33.76-.48-.2-4.82-.44-5.77ZM443.82,357.06c-7.89,13.2-4.86,39.68,10.89,46.11l6.88,2.11c-5.54.24-11.17-.96-15.96-3.76-19.08-11.15-16.05-41.59,3.32-50.61-1.89,1.9-3.76,3.84-5.14,6.15ZM473.66,370.43h-27.19c-.25-.07-.62-.59-.56-.92.83-7.35,2.34-17.45,10.33-20.33,3.65-1.32,9.2-1.18,12.06,1.71,3.2,3.23,5.26,10.78,5.84,15.22.17,1.28.46,3.38-.49,4.32ZM476.53,370.43v-5.55c0-.17-.59-1.04-.67-1.62-.86-5.64-1.75-9.7-6.6-13.31.22-.48,1.08-.07,1.43.11,1,.5,3.98,2.74,4.88,3.55,4.75,4.27,7,10.66,7.86,16.84h-6.89Z"></path><path d="M249.85,403.79l-.04,1.88h30.64l-.02-1.9c-4.42-.46-7.11-2.78-7.93-7.2-.12-.66-.48-3.27-.48-3.73v-84.83l-22.23,2.92.03,1.27c5.59.49,7.65,3.7,8.04,9,1.75,23.86-1.34,49.85-.02,73.92-.48,5.37-2.8,7.58-8,8.66ZM260.17,397.83v-80.07c.25-3.19-3.82-3.46-4.6-5.92l11.49-.77v87.89c0,1.11,3.02,2.52,3.45,3.64h-13.79c1.17-1.6,3.32-2.48,3.46-4.78Z"></path><path d="M343.64,347.84h-17.23c-.45,3.05,3.69,1.35,5.78,3.23,2.27,2.04-.09,7.29-.99,9.79-2.68,7.38-6.66,17.39-10.07,24.39-.29.59-.52,1.43-1.21,1.65-3.26-8.28-7.64-16.1-11.18-24.25-2.65-6.1-6.27-11.84,3.52-13.09l.38-1.15-.57-.58h-30.45c-.43,2.31,2.58,2.09,4.4,3.45,1.57,1.17,2.64,3.12,3.71,4.72l23.22,47.65c.31,1.58-2.06,7.11-2.92,8.78-1.02,1.99-2.84,5.07-5.54,4.26-3.78-1.12.22-10.95-6.58-11.44-9.77-.7-8.67,13.89-2.25,17.96,8.7,5.51,13.36-2.8,16.4-9.52,8.29-18.29,14.51-40,23.67-57.52,1.16-2.22,1.94-4.12,4.23-5.35,1.53-.82,4.19-.7,3.7-3ZM293.97,418.38c-1.35-2.67-2.7-10.49,1.96-10.03,3.16.31,1.85,5.46,2.24,7.75.59,3.53,3.65,5.73,7.19,5.26-3.71,3.45-9.27,1.17-11.38-2.99ZM314.73,402.21l-22.2-45.57c-.85-1.2-1.41-2.64-2.34-3.79-.94-1.17-2.43-1.82-2.84-3.1h14.94c.04,1.11-1.23,1.5-1.69,2.33-1.03,1.84-.67,4.17-.01,6.08l17.31,36.26-3.16,7.79Z"></path><path d="M274.33,194.27c1.35.01,2.33-.92,3.67-1.11,6.64-.94,9.29,3.01,2.18,5.62-1.64.6-3.4.8-5.08,1.24.33.75,1.59.79,2.28,1.35s1.23,1.29,1.1,2.19c-.57,3.86-9.88.06-11.46,1.97-1.75,2.12,3.47,1.66,4.8,3.69,3.77,5.75-10.38,1.81-11.26,4.82-.73,2.51,5.24,1.48,6.65,1.7,1.91.29,3.91,1.9,2.85,3.94-2.56,4.89-15.5,1.54-17.37,5.62-1.7,3.7,4.81,1.69,3.96,4.7-.3,1.05-6.83,4.49-7.41,4.48-.74-.02-.31-.84-.3-1.05.32-9.9,4.93-18.53,11.41-25.75,3.12-3.48,6.91-6.24,10.15-9.57-1.49.58-3.13,1.71-4.4,2.68-7.48,5.73-14.15,14.55-17.44,23.35-1,.12-.6-.02-.77-.56-.37-1.2-.73-4.41-.77-5.74-.05-1.68.25-6.74,1.35-7.88,1.3-1.36,3.18,1.19,3.65.77.48-1.77,1.7-10.1,4.68-7.66.39.32,1.14,2.09,1.65,1.16.27-1.89,2.01-8.26,3.52-9.21,2.36-1.5,2.9,2.76,3.55,2.31.93-2.5,4.37-6.32,7.09-6.53,2.99-.23,2.04,1.35,1.72,3.46Z"></path><path d="M229.33,215.71c.6-.1,1.25-.62.96-1.32-.78-3.8-12.15.4-11.79-3.79.29-3.37,5.76-2.93,5.95-4.27.32-2.3-5.79-.99-6.98-.95-2.18.07-7.01-.7-4.4-3.63.66-.74,2.17-.93,2.66-1.74-2.12-.29-9.94-2.09-9.13-5.09s8.13-1.57,10.28-.66c-.57-1.14-1.03-2.2-.33-3.39,4.47-.67,6.97,3.37,9.33,6.45,3.4-7.5,6.11,4.1,6.71,7.28,1.11.25.91-1.26,1.92-1.73,3.2-1.48,3.39,6.77,4.58,7.68.89.68,1.75-2.17,3.48-.41,1.84,1.87,1.22,11.32.17,13.99-4.44-9.24-10.01-17.29-18.23-23.52-1.18-.89-2.75-2.13-4.18-2.52,11.12,9.3,21.53,20.55,21.83,35.99-.46.49-7.58-2.76-7.9-4.2-.58-2.02,3.54-1.84,4.1-2.56.69-.88-.27-2.54-1.04-3.14-2.98-2.31-18.55-.02-16.54-6.68.2-.67,2.29-1.8,2.8-1.8,1.67,0,4.24.24,5.74,0Z"></path><path d="M236.02,279.67c-.91.28-1.03-.69-1.11-1.37-.73-6.24,1.95-10.48-4.07-15.09-8.19-6.27-21.83,1.33-16.26,11.48.89.2.61-.12.85-.49,1.52-2.34,2.01-5.19,5.55-5.93,9.98-2.09,10.63,11.97,2.51,13.61-8.46,1.71-14.05-5.28-12.75-13.32l-2.62-.44c-1.16-6.36,8.52-10.18,13.52-10.3,4.48-.11,9.9,2.26,13.24,5.18,1.52,1.33,2.66,3.54,3.81,4.53.43.37.63.29,1.16.26.04-1.45.21-2.54-.59-3.81-1.68-2.69-10.83-5.45-4.39-8.63-2.47-2.48-12.71-2.57-14.14-5.04-.17-.3-.32-.58-.24-.94,1.91-5.16,9.72-1.76,12.97.49,4.16,2.88,11.09,12.36,10.05,17.57-.91,4.54-7.19,7.27-7.5,12.24Z"></path><path d="M255.94,255.54c1.75.3,2.76,1.25,2.13,3.09-.85,2.49-9.23,4.3-6.73,9.17.74.52,2.83-3.04,3.43-3.65,6.74-6.89,20.06-9.15,26.63-.94,1.88,2.35,2.98,5.86-1.34,5.37,1.58,7.55-3.3,14.09-11.31,13.42-9.34-.78-9.21-14.89.41-13.81,3.03.34,6,3.49,6.31,6.52.68.15.76-.2,1.09-.63,5.61-7.37-7.25-17.65-16.38-11.02-6.13,4.45-3.61,9.43-4.27,15.64-.04.37-.17,1.44-.73,1.37-1.29-6.92-8.8-8.07-7.57-15.8s11.39-18.48,19.6-17.48c1.99.24,4.34,1.87,2.74,3.82-1.84,2.25-11.52,2.3-14.01,4.95Z"></path><path d="M255.57,171.29c3.39-3.12,3.85,3.75,4.79,4.21.96.1.58-1.18,1.6-1.48,1.81-.53,2.4,2.29,2.41,3.58.02,2.1-1.16,4.31-1.52,6.32,2.4-1.9,6.68-.39,6.5,2.84s-3.85,2.6-5.93,4.05c-3.06,2.12-3.9,7.28-7.85,8.42,4.04-5.75,6.19-12.64,3.63-19.52-.22-.6-.76-2.01-1.33-2.3,2.13,7.04,1.75,14.33-2.91,20.26-.42.54-3.52,3.91-3.99,3.48,1.78-3.88-5.1-5.18-4.15-8.53.76-2.64,5.38-1.01,7.02.1.34-.3.56-.42.56-.93,0-3.18-5.97-3.2-4.89-6.83.84-2.84,5.99-1.32,7.39.49.29-3.85-7.52-4.07-7.35-7.41.09-1.83,1.07-1.77,2.38-2.16,1.66-.5-1.22-1.62-1.92-2.31-1.71-1.68-3.06-4.49-3.26-6.89,3.69-.42,7.55.8,8.81,4.59Z"></path><path d="M244.07,166.7c-.02,2.39-1.1,4.59-2.67,6.33-.61.67-2.52,1.88-2.69,2.29-.33.81,1.58.55,2.25,1.57,2.59,3.94-6.78,4.71-7.23,8.39,1.31.05,1.9-1.28,3.3-1.7,1.78-.53,3.98-.09,4.49,1.96.78,3.17-6.01,3.34-4.72,7.2,2.18-.65,5.04-2.81,7.02-.68,1.3,3.01-1.7,3.88-3.37,5.67l-1.16,3.43c-7.08-5.97-9.47-15.5-5.94-24.12-3.55,4.4-3.3,11.01-1.33,16.08.85,2.17,2.31,4.02,3.25,6.13-4.51-1.83-4.65-7.13-9.04-9.15-1.77-.81-4.78-.73-4.63-3.62.17-3.3,3.92-4.26,6.39-2.55-.69-3.18-2.13-6.66-.4-9.79,1.51-1.03,2.89,1.99,3.46,1.36-.06-1.81.86-3.41,1.92-4.79.8-.5,1.54-.08,2.11.56,1.99-3.47,4.91-5.13,9-4.58Z"></path><path d="M331.77,248.65c.22,4.72-1.66,9.83-5.74,12.45,5.62-.13,8.72,4.72,4.4,9-2.16-9.6-8.72,1.19-12.04,2.9-1.78.92-3.81,1.04-5.77.93-.55-.53,3.21-4.8,3.76-5.62.66-1,4.18-6.57,3.51-7.4-4.73,1.84-8.17,5.34-11.29,9.19h-.77c-4.25-8.75,13.51-12.31,4.02-20.3,2.57-.81,6.3-.02,7.61,2.53.63,1.23-.06,3.03,1.19,2.82,1.5-4.43,6.57-6.92,11.11-6.51Z"></path><path d="M170.16,255.16c.89.88.79-1.57.94-1.93,1.46-3.48,4.82-4.21,8.24-3.43-.74.92-2.29,1.59-2.77,2.77-2.5,6.13,7.77,8.33,6.99,15.81-.1.94-.43,2.63-1.53,1.52-.99-1-2.09-2.86-3.07-3.82-.81-.79-7.44-5.76-8.04-5.17,1.34,4.76,4.44,8.8,7.65,12.44-.69.87-2.14.65-3.21.53-5.46-.61-6.52-6.55-11.33-7.46-2.51-.48-3.38,1.46-3.46,3.68-4.3-3.77-1.38-9.51,4.22-8.81-3.8-3.26-5.87-7.55-5.75-12.64,3.4-.36,7.32,1.04,9.57,3.65.64.74,1.43,2.75,1.55,2.86Z"></path><path d="M142.58,447.41c1.05-1.15,2.72-1.33,4.02-2.29,4.41-3.29,3.83-9.79-.6-12.8-5.11-3.47-13.9-.97-19.7-.95-1.96,0-4.21-.8-6.32-.41,1.14,1.32,3.27,1.18,4.17,2.92.54,1.03.75,3.31.83,4.53.37,5.78.41,14.58,0,20.33-.12,1.7-.32,4.08-1.74,5.15l-3.25,1.92c3.76.12,7.55-.14,11.31-.01,6.28.22,16.69,2.62,20.16-4.7,3.19-6.75-1.93-13.23-8.88-13.67ZM144.24,432.92c5.66,3.76,3.32,12.36-3.19,13.34,4.65-3.86,4.56-10.71-.38-14.36.96-.52,2.7.45,3.57,1.02ZM134.77,431.36c8.41-1.22,12.08,9.49,6.09,14.13-.44.34-2.72,1.53-3.06,1.53h-7.08v-12.45c0-1.14,2.83-3.04,4.05-3.22ZM123.82,464.64l1.93-2.85c-.62-8.41.75-17.8,0-26.08-.07-.72-.06-1.18-.44-1.86-.54-.94-1.9-.97-1.87-2.15h7.66c-1.71,1.76-2.44,1.69-2.7,4.39-.75,8.01.6,17.16,0,25.3-.06,1.48,1.25,2.16,1.92,3.25h-6.51ZM139.33,465.03c-2.44.28-8.62-.2-8.62-3.64v-13.6h7.47c.18,0,1.99.55,2.38.68,8.22,2.87,7.16,15.59-1.23,16.55ZM142.2,465.02c.49-.68,1.37-.81,2.12-1.51,3.98-3.69,3.39-11.22-.97-14.38,1.8-.46,4.32,2.06,5.3,3.51,3.61,5.37-.17,12.02-6.45,12.38Z"></path><path d="M245.08,273.95c1.14-.35,3.86,3.72,4.42,4.7,5.02,8.78.22,16.56-4.08,24.37-4.86-8.37-9.12-17.23-2.81-26.16.29-.41,2.29-2.86,2.47-2.91Z"></path><path d="M368.25,463.58c-1.77-5.14,1.78-14.14-2.98-17.7-3-2.25-6.43-1.95-9.35.22-.7.52-3.3,3.63-3.86,3.22-2.42-6.71-8.6-5.92-13.28-1.78-.59.52-1.5,2.79-1.67.45-.08-1.08.06-2.19,0-3.26l-8.04.77c.49.81,1.67.74,2.31,1.71,1.09,1.64.94,11,.77,13.43-.07,1-.14,2.34-.62,3.21-.75,1.36-2.46,1.03-2.46,2.33h10.72c.2-.92-.15-.62-.5-.86-1.1-.74-1.89-.72-2.16-2.42-.22-1.44-.27-11.45.06-12.54.14-.47,3.06-3.34,3.62-3.66,1.25-.73,2.91-.98,4.35-.82-.11-.18-.45-.71-.38-.76,9.12-.04,5.08,12.62,6.14,18.18.17.88.83,1.04,1.14,1.73h-4.98c.62-.9,1.02-1.33,1.16-2.48.31-2.62.23-13.22-.82-15.28-.54-1.05-1.19-1.27-2.25-1.39.4.62,1.05.7,1.48,1.39,1.16,1.83,1.07,12.26.83,14.91-.21,2.3-.58,2.06-2.2,3.15-.35.24-.7-.06-.5.86h10.72c.2-.92-.15-.62-.5-.85-1.33-.9-2.12-.92-2.47-2.87-.35-1.93-.38-9.43-.07-11.38.6-3.8,9.52-8.63,10.32-1.55.3,2.66.37,10.84-.02,13.38-.26,1.7-1.06,1.68-2.16,2.42-.35.24-.7-.06-.5.86h10.72l-2.58-2.59ZM336.37,465.02h-4.59c.05-.87.65-1.09.79-2.08.21-1.52.12-14.78-.22-15.52-.16-.35-1.54-1.33-1.33-1.53l4.21-.39v17.81c0,.29,1.31,1.6,1.15,1.72ZM362.41,465.02c.31-.69.97-.85,1.14-1.73.41-2.18.23-10.14,0-12.62-.1-1.09-.4-2.38-.81-3.41l-2.63-2.15c9.28-.15,5.06,12.53,6.13,18.18.17.88.83,1.04,1.14,1.73h-4.98Z"></path><path d="M210.35,464.08c-.16-.24-.75-1.76-.75-1.93v-31.59l-7.66.77c.25.82,1.27.8,1.91,1.15-.04-.24,0-.51,0-.75l4.21-.4v32.36c0,.2,1.14.87,1.15,1.34h-3.83s-.35-32.02-.35-32.02c-.35-.47-.87-.37-1.18-.53.1.7.68,1.46.77,2.49.33,3.73-.25,7.9,0,11.68-1.09-.24-1.84-1.03-2.96-1.44-11.05-4.13-20.04,11.51-11.01,19.05,4.45,3.72,9.68,2.41,13.96-.76.03.93-.29,2.06.58,2.68h7.47c.09-1.22-1.55-.97-2.31-2.09ZM193.9,446.26c-3.79,4.36-4.98,9.93-2.45,15.28.97,2.04,2.29,2.93,3.98,4.25-10.02-1.75-10.12-15.74-1.53-19.52ZM204.55,461.69c-.38,1.32-4.54,3.64-5.89,3.7-7.87.35-8.88-19.07-.63-20.2,2.07-.28,6.32,1.68,6.62,3.93.2,1.52.23,11.45-.1,12.58Z"></path><path d="M282.75,445.88c.22-.05.79-.13.76.19-5.38,4.27-5.3,13.99-.38,18.57-7.59-2.56-8.08-12.8-2.3-17.61-12.35,8.83,1.81,25.48,14.14,17.39,11.51-7.56,1.59-24.85-12.22-18.54ZM292.13,465.02c-1.03.43.28-1.33-.75-.76-.53.29-.79.87-1.62,1.06-10.94,2.54-10.79-22.26-.39-20.13,5.77,1.19,5.83,11.6,4.29,15.99-.36,1.03-1.19,1.66-1.33,2.69,4.06-4.23,3.77-13.7-.38-17.81,1.24-.34,3.42,2.05,4.15,3.13,3.35,5.03,1.86,13.38-3.96,15.82Z"></path><path d="M282.75,445.88s-.64.32-.77.38c.27-.15.49-.26.77-.38Z"></path><path d="M281.98,446.26c-.06.03-1.1.72-1.15.77.5-.35.49-.4,1.15-.77Z"></path><path d="M236.03,453.92c.4-11.22-15.41-12.73-19.72-3.44-5.09,10.97,5.53,20.23,15.9,14.37.51-.29,3.98-2.72,3.43-3.27-1.38.41-2.22,1.7-3.57,2.36-7.44,3.67-12.12-3.07-11.37-10.03h15.32ZM222.65,464.43c1.2.8,2.58.73,3.42,1.75-7.97-.17-12.17-7.32-9.49-14.66.78-2.13,2.61-4.62,4.89-5.25-4.53,4.35-4.07,14.65,1.17,18.16ZM229.33,446.26l.37-.77c3.01,1.33,4.75,4.37,4.41,7.66h-2.3c.14-2.26-.04-4.97-1.91-6.51.89,2.2,1.44,4.07,1.15,6.51h-10.34c-.39-5.21,3.24-10.58,8.62-6.89Z"></path><path d="M309.18,445.88c.22-.05.79-.13.76.19-5.19,4.04-5.43,14.19-.38,18.39-.06.33-.87.23-1.15.19,4.41,3.25,11.83,2.04,15.31-2.12,8.01-9.57-2.85-22.02-14.54-16.65ZM313.29,445.2c9.9-1.8,9.66,19.03,2.57,20.18-10.28,1.67-9.94-18.84-2.57-20.18ZM317.98,465.02c4.76-4.68,4.75-14.01.38-18.96,1.07-.4,3.15,1.77,3.83,2.68,3.87,5.24,2.12,13.94-4.21,16.27Z"></path><path d="M309.18,445.88s-.68.33-.77.38c.27-.15.49-.26.77-.38Z"></path><path d="M308.41,446.26c-7.23,4.43-6.38,13.68,0,18.38-2.49-.34-5.39-4.78-5.71-7.12-.73-5.33,1.32-8.77,5.71-11.26Z"></path><path d="M245.12,238.37c1.19-.23,1.92.6,2.56,1.5,3.17,4.47.59,14.02-2.27,18.35-2.18-3.92-4.13-9.77-3.6-14.31.2-1.69,1.44-5.17,3.3-5.54Z"></path><path d="M184.71,465.42c-.88.11-2.68-1.43-2.68-2.11v-18.57l-8.04.77c1.71,1.42,2.47,1.06,2.7,3.62.27,2.97.39,11.01-.04,13.78-.26,1.7-1.06,1.68-2.16,2.42-.35.24-.7-.06-.5.86h10.72v-.76ZM176.67,465.02c.05-.87.65-1.09.79-2.08.21-1.52.12-14.78-.22-15.52-.26-.57-1.17-.86-1.33-1.53l4.21-.39v18.19c0,.2,1.14.87,1.15,1.34h-4.59Z"></path><path d="M171.47,446.29c-3.08-4.4-7.37-.81-8.59,3.03-.63.1-.36-.52-.38-.95-.06-1.21.05-2.44,0-3.65l-8.04.77c.29.86,1.32.7,1.93,1.32,1.63,1.65,1.46,14.65.46,16.97-.67,1.54-2.37,1.04-2.39,2.39h10.91c.08,0,.7-.64.57-.76-2.03-.23-3.11-.82-3.41-2.91-.31-2.14-.29-10.42.26-12.3.57-1.93,4.58-7.66,5.83-3.56.66.05.16-1.44,1.15-.58.97.84,1.66,4.23.97,5.2-.63.9-2.03.59-2-.9.02-1.16.77-2.48.63-3.71-.39-.52-2.55,5.2.21,5.74,3.77.73,3.4-3.91,1.87-6.09ZM157.14,465.02c.05-.87.65-1.09.79-2.08.21-1.52.12-14.78-.22-15.52-.16-.35-1.54-1.33-1.33-1.53l4.21-.39v18.19c0,.2,1.14.87,1.15,1.34h-4.59Z"></path><path d="M259.01,446.64c-.62-.28-2.06-.37-2.3-1.14l8.04-.77.19,4.6c1.51-1.76,2.34-4.64,5.02-4.97,5.21-.63,7.11,9.46,1.55,8.04-.47-.1-.17-.63-.24-.78,3,.66,2.34-4.5.57-5.74l-.57,5.74c-1.01-1.98.18-3.44-.05-5.49-2.26-3.09-5.97,3.05-6.37,5-.32,1.54-.34,10.21,0,11.7.13.57.6,1.26,1.04,1.64.92.78,2.49.51,2.32,1.7h-10.91c-.07,0-.68-.62-.57-.76,2.23-.33,2.85-1.49,3.07-3.64.31-3.1.27-9.12,0-12.26-.09-1.06-.7-1.95-.77-2.87.24.11.74-.03.97.36.43.69.41,14.68.2,16.32-.11.83-.39,1.06-.79,1.7h4.59c.32-.99-1.15-.83-1.15-1.72v-17.81l-3.8.42c-.09.23-.05.48-.03.73Z"></path><path d="M187.15,194.1c4.35,3.97,7.05,7.17,6.75,13.57-.84.88-5.37-4.46-5.82-5.48-1.06-2.39-1.38-6.09-1.46-8.69.57-.14.29.39.52.59Z"></path><path d="M297.31,208.05c-.9-6.64,2.42-10.71,7.27-14.55-.55,6.12-1.73,11.16-7.27,14.55Z"></path><path d="M268.58,224.53c-.67,2.94-4.09,4.7-6.86,3.41-.27-3.73,4.06-4.27,6.86-3.41Z"></path><path d="M222.24,224.52c2.82-.72,6.68-.44,7.11,3.08-2.71,2.01-6.3-.12-7.11-3.08Z"></path><path d="M184.57,250.59c3.4,1.54,2.09,5.53-.05,7.62-1.82-2.27-2.81-5.78.05-7.62Z"></path><path d="M304.58,246.35c-2.95-.87-4.71-3.94-3.41-6.86,3.51-.31,4.44,4.23,3.41,6.86Z"></path><path d="M272.08,223.82c2.49-1.75,5.62-.76,7.22,1.66-2.12,2.04-7.18,1.99-7.22-1.66Z"></path><path d="M214.86,223.08c2.04-.42,5.74.47,3.37,2.6-1.89,1.7-4.84,1.43-6.7-.2.88-.94,2.03-2.13,3.33-2.4Z"></path><path d="M298.07,236.39c-2.98-.36-5.92-1.92-5.71-5.32,3.24-1.29,5.93,2.27,5.71,5.32Z"></path><path d="M198.46,231.08c.37,3.66-2.55,4.98-5.7,5.32.04-2.95,2.45-6.52,5.7-5.32Z"></path><path d="M305.96,250.58c3.37,1.38,2.22,5.39.34,7.63-2.14-2.08-2.92-5.6-.34-7.63Z"></path><path d="M289.64,229.5c-3.06.41-6.59-.57-6.49-4.19,3.05-1.27,5.94,1.26,6.49,4.19Z"></path><path d="M207.65,225.32c.41,3.82-3.43,4.47-6.47,4.18.6-2.95,3.47-5.3,6.47-4.18Z"></path><path d="M189.67,239.47c1.3,3.07-.32,6.04-3.43,6.88-.85-2.75,0-6.74,3.43-6.88Z"></path><path d="M177.82,439.75c-.29-.12-.59.02-.95-.38-.2-.23-.12-.57-.2-.77.03.08,1.07,1.12,1.15,1.15Z"></path><path d="M176.67,438.6c-.97-2.38-.03-4.57,2.84-4.2,3.88.49,3.31,7.39-1.69,5.35.29.12.92-.03,1.28-.04l.58-.58-.34-4.34c-1.96-.39-3.29,2.25-2.67,3.82Z"></path><path d="M153.69,277.37c.05-1.94,1.62-3.67,3.64-3.48,3.56.35-1.38,4.59-3.64,3.48Z"></path><path d="M162.5,273.15c.19-2.39,5.28-2.54,5.72-.54.39,1.76-4.71,1.44-5.72.54Z"></path><path d="M150.14,282.63c-.32.32-3.2,1.41-3.34,1.25-.21-1.79,1.47-4.44,3.33-4.54,1.52-.08.68,2.62,0,3.28Z"></path><path d="M337.51,277.37c-2.42.26-5.27-.52-4.98-3.44,2.6-.56,4.22,1.14,4.98,3.44Z"></path><path d="M328.71,272.4c-1.5,1.94-4.59,2.19-6.12.19,1.67-2.35,4.01-1.32,6.12-.19Z"></path><path d="M344.02,283.88c-1.86.4-5.76-3.38-3.46-4.41,1.45-.65,4.03,2.82,3.46,4.41Z"></path></g></g></svg>