<?xml version="1.0"?><svg xmlns="http://www.w3.org/2000/svg" id="_Слой_2" data-name="Слой 2" viewBox="-0.98 143.66 490.59 201.32" xmlns:c2pa="http://c2pa.org/manifest" fill="#041e3a"><metadata><c2pa:manifest>AAAWgmp1bWIAAAAeanVtZGMycGEAEQAQgAAAqgA4m3EDYzJwYQAAABZcanVtYgAAAEdqdW1kYzJtYQARABCAAACqADibcQN1cm46YzJwYTo1OTM5ZDU1My05N2E5LTQ4Y2EtOWRiMi04Njk2YWQxYTc2ZTkAAAADl2p1bWIAAAApanVtZGMyYXMAEQAQgAAAqgA4m3EDYzJwYS5hc3NlcnRpb25zAAAAALxqdW1iAAAARGp1bWRjYm9yABEAEIAAAKoAOJtxE2MycGEuaW5ncmVkaWVudC52MwAAAAAYYzJzaH0Suin1MdH06SphJOSrTo4AAABwY2JvcqNpZGM6Zm9ybWF0bWltYWdlL3N2Zyt4bWxqaW5zdGFuY2VJRHgseG1wOmlpZDpjYzZhYTU1ZC1mYmJiLTRlNzUtOWQ4My1kOWNjNTU2Mjk1YmNscmVsYXRpb25zaGlwaHBhcmVudE9mAAAB4mp1bWIAAABBanVtZGNib3IAEQAQgAAAqgA4m3ETYzJwYS5hY3Rpb25zLnYyAAAAABhjMnNohme1Nj7i2N0QRmU1KvP2aAAAAZljYm9yomdhY3Rpb25zgqJmYWN0aW9ua2MycGEub3BlbmVkanBhcmFtZXRlcnOha2luZ3JlZGllbnRzgaJjdXJseC1zZWxmI2p1bWJmPWMycGEuYXNzZXJ0aW9ucy9jMnBhLmluZ3JlZGllbnQudjNkaGFzaFggYWso2ThcvD+y0v+Cw3+40C+OAVxothvGd3X5/DO23wOkZmFjdGlvbngdY29tLmFudGhyb3BpYy5jbGF1ZGUucHJvdmlkZWRqcGFyYW1ldGVyc6F4H2NvbS5hbnRocm9waWMub3JpZ2luLWNvbmZpZGVuY2VndW5rbm93bmtkZXNjcmlwdGlvbnhmQ2xhdWRlIHByb3ZpZGVkIHRoaXMgZmlsZSBhdCB0aGUgcmVxdWVzdCBvZiBhIHVzZXIgYW5kIG1heSBoYXZlIGNyZWF0ZWQgb3IgbW9kaWZpZWQgdGhlIGZpbGUgY29udGVudHMubXNvZnR3YXJlQWdlbnShZG5hbWVmQ2xhdWRlcmFsbEFjdGlvbnNJbmNsdWRlZPUAAADIanVtYgAAAEBqdW1kY2JvcgARABCAAACqADibcRNjMnBhLmhhc2guZGF0YQAAAAAYYzJzaFg0UQ48aIMDEOyGHpNrpysAAACAY2JvcqVjYWxnZnNoYTI1NmNwYWRNAAAAAAAAAAAAAAAAAGRoYXNoWCAtsFVNB0NueRdErplvbjVvuzDzduGPzjxZMCLGFc0TS2RuYW1lbmp1bWJmIG1hbmlmZXN0amV4Y2x1c2lvbnOBomVzdGFydBjYZmxlbmd0aBkeBAAAAj5qdW1iAAAAJ2p1bWRjMmNsABEAEIAAAKoAOJtxA2MycGEuY2xhaW0udjIAAAACD2Nib3KlY2FsZ2ZzaGEyNTZpc2lnbmF0dXJleE1zZWxmI2p1bWJmPS9jMnBhL3VybjpjMnBhOjU5MzlkNTUzLTk3YTktNDhjYS05ZGIyLTg2OTZhZDFhNzZlOS9jMnBhLnNpZ25hdHVyZWppbnN0YW5jZUlEeCx4bXA6aWlkOjg4MjVjYmY2LWUzNTctNGM2Ny04MzA1LWQ2Yjk3Y2UzODMxNnJjcmVhdGVkX2Fzc2VydGlvbnODomN1cmx4LXNlbGYjanVtYmY9YzJwYS5hc3NlcnRpb25zL2MycGEuaW5ncmVkaWVudC52M2RoYXNoWCBhayjZOFy8P7LS/4LDf7jQL44BXGi2G8Z3dfn8M7bfA6JjdXJseCpzZWxmI2p1bWJmPWMycGEuYXNzZXJ0aW9ucy9jMnBhLmFjdGlvbnMudjJkaGFzaFggbhMXk+7Q2E9fR5R+1V9J1onjpBQYBlcruOx7ahViWJ6iY3VybHgpc2VsZiNqdW1iZj1jMnBhLmFzc2VydGlvbnMvYzJwYS5oYXNoLmRhdGFkaGFzaFgg8QRiUOxQyPefqZOZWdPv/QiJF3bCgEMzQexxG48JuaJ0Y2xhaW1fZ2VuZXJhdG9yX2luZm+jZG5hbWVvQW50aHJvcGljIEZpbGVzZ3ZlcnNpb25lMS4wLjBrc3BlY1ZlcnNpb25lMi40LjAAABA4anVtYgAAAChqdW1kYzJjcwARABCAAACqADibcQNjMnBhLnNpZ25hdHVyZQAAABAIY2JvctKEWQISogEmGCFZAgowggIGMIIBjaADAgECAhRA5aAK7sI50L64g/oGQgU9Z1UTADAKBggqhkjOPQQDAzBJMRcwFQYDVQQKEw5BbnRocm9waWMsIFBCQzEuMCwGA1UEAxMlQW50aHJvcGljIENvbnRlbnQgQ3JlZGVudGlhbHMgUm9vdCBDQTAeFw0yNjA4MDcxODQzNTZaFw0yODA4MDYxOTQzNTZaMEQxFzAVBgNVBAoTDkFudGhyb3BpYywgUEJDMSkwJwYDVQQDEyBBbnRocm9waWMgQ2xhdWRlIENvbnRlbnQgU2lnbmluZzBZMBMGByqGSM49AgEGCCqGSM49AwEHA0IABJh6CmvLUBgFFNU0vUKlOVtE6djd17L5SuwX0LemFisBM3dkd/3cyjxFA3Qo5S46fX0/ihY0VZ7mfb9KF703t5OjWDBWMA4GA1UdDwEB/wQEAwIHgDAVBgNVHSUEDjAMBgorBgEEAYPoXgIBMAwGA1UdEwEB/wQCMAAwHwYDVR0jBBgwFoAUzlHiBIFOZFsj+OPEz5o+nMHXXMIwCgYIKoZIzj0EAwMDZwAwZAIwMXMdFJ4BetLLVY7ORuE9noqbbAZOZn/aArXyTwFAZfKrPzxF2vPoJNf1+UCdg1XGAjBwX1zd9WGqYkqmL5SFqw1QySjr1zJfpJM9+1rdDwSPLMOPOjKuiXjoU/pUUeG9RwmhY3BhZFkNngAAAAAAAAAAAAAAAAAAAAAAAAAAAAAAAAAAAAAAAAAAAAAAAAAAAAAAAAAAAAAAAAAAAAAAAAAAAAAAAAAAAAAAAAAAAAAAAAAAAAAAAAAAAAAAAAAAAAAAAAAAAAAAAAAAAAAAAAAAAAAAAAAAAAAAAAAAAAAAAAAAAAAAAAAAAAAAAAAAAAAAAAAAAAAAAAAAAAAAAAAAAAAAAAAAAAAAAAAAAAAAAAAAAAAAAAAAAAAAAAAAAAAAAAAAAAAAAAAAAAAAAAAAAAAAAAAAAAAAAAAAAAAAAAAAAAAAAAAAAAAAAAAAAAAAAAAAAAAAAAAAAAAAAAAAAAAAAAAAAAAAAAAAAAAAAAAAAAAAAAAAAAAAAAAAAAAAAAAAAAAAAAAAAAAAAAAAAAAAAAAAAAAAAAAAAAAAAAAAAAAAAAAAAAAAAAAAAAAAAAAAAAAAAAAAAAAAAAAAAAAAAAAAAAAAAAAAAAAAAAAAAAAAAAAAAAAAAAAAAAAAAAAAAAAAAAAAAAAAAAAAAAAAAAAAAAAAAAAAAAAAAAAAAAAAAAAAAAAAAAAAAAAAAAAAAAAAAAAAAAAAAAAAAAAAAAAAAAAAAAAAAAAAAAAAAAAAAAAAAAAAAAAAAAAAAAAAAAAAAAAAAAAAAAAAAAAAAAAAAAAAAAAAAAAAAAAAAAAAAAAAAAAAAAAAAAAAAAAAAAAAAAAAAAAAAAAAAAAAAAAAAAAAAAAAAAAAAAAAAAAAAAAAAAAAAAAAAAAAAAAAAAAAAAAAAAAAAAAAAAAAAAAAAAAAAAAAAAAAAAAAAAAAAAAAAAAAAAAAAAAAAAAAAAAAAAAAAAAAAAAAAAAAAAAAAAAAAAAAAAAAAAAAAAAAAAAAAAAAAAAAAAAAAAAAAAAAAAAAAAAAAAAAAAAAAAAAAAAAAAAAAAAAAAAAAAAAAAAAAAAAAAAAAAAAAAAAAAAAAAAAAAAAAAAAAAAAAAAAAAAAAAAAAAAAAAAAAAAAAAAAAAAAAAAAAAAAAAAAAAAAAAAAAAAAAAAAAAAAAAAAAAAAAAAAAAAAAAAAAAAAAAAAAAAAAAAAAAAAAAAAAAAAAAAAAAAAAAAAAAAAAAAAAAAAAAAAAAAAAAAAAAAAAAAAAAAAAAAAAAAAAAAAAAAAAAAAAAAAAAAAAAAAAAAAAAAAAAAAAAAAAAAAAAAAAAAAAAAAAAAAAAAAAAAAAAAAAAAAAAAAAAAAAAAAAAAAAAAAAAAAAAAAAAAAAAAAAAAAAAAAAAAAAAAAAAAAAAAAAAAAAAAAAAAAAAAAAAAAAAAAAAAAAAAAAAAAAAAAAAAAAAAAAAAAAAAAAAAAAAAAAAAAAAAAAAAAAAAAAAAAAAAAAAAAAAAAAAAAAAAAAAAAAAAAAAAAAAAAAAAAAAAAAAAAAAAAAAAAAAAAAAAAAAAAAAAAAAAAAAAAAAAAAAAAAAAAAAAAAAAAAAAAAAAAAAAAAAAAAAAAAAAAAAAAAAAAAAAAAAAAAAAAAAAAAAAAAAAAAAAAAAAAAAAAAAAAAAAAAAAAAAAAAAAAAAAAAAAAAAAAAAAAAAAAAAAAAAAAAAAAAAAAAAAAAAAAAAAAAAAAAAAAAAAAAAAAAAAAAAAAAAAAAAAAAAAAAAAAAAAAAAAAAAAAAAAAAAAAAAAAAAAAAAAAAAAAAAAAAAAAAAAAAAAAAAAAAAAAAAAAAAAAAAAAAAAAAAAAAAAAAAAAAAAAAAAAAAAAAAAAAAAAAAAAAAAAAAAAAAAAAAAAAAAAAAAAAAAAAAAAAAAAAAAAAAAAAAAAAAAAAAAAAAAAAAAAAAAAAAAAAAAAAAAAAAAAAAAAAAAAAAAAAAAAAAAAAAAAAAAAAAAAAAAAAAAAAAAAAAAAAAAAAAAAAAAAAAAAAAAAAAAAAAAAAAAAAAAAAAAAAAAAAAAAAAAAAAAAAAAAAAAAAAAAAAAAAAAAAAAAAAAAAAAAAAAAAAAAAAAAAAAAAAAAAAAAAAAAAAAAAAAAAAAAAAAAAAAAAAAAAAAAAAAAAAAAAAAAAAAAAAAAAAAAAAAAAAAAAAAAAAAAAAAAAAAAAAAAAAAAAAAAAAAAAAAAAAAAAAAAAAAAAAAAAAAAAAAAAAAAAAAAAAAAAAAAAAAAAAAAAAAAAAAAAAAAAAAAAAAAAAAAAAAAAAAAAAAAAAAAAAAAAAAAAAAAAAAAAAAAAAAAAAAAAAAAAAAAAAAAAAAAAAAAAAAAAAAAAAAAAAAAAAAAAAAAAAAAAAAAAAAAAAAAAAAAAAAAAAAAAAAAAAAAAAAAAAAAAAAAAAAAAAAAAAAAAAAAAAAAAAAAAAAAAAAAAAAAAAAAAAAAAAAAAAAAAAAAAAAAAAAAAAAAAAAAAAAAAAAAAAAAAAAAAAAAAAAAAAAAAAAAAAAAAAAAAAAAAAAAAAAAAAAAAAAAAAAAAAAAAAAAAAAAAAAAAAAAAAAAAAAAAAAAAAAAAAAAAAAAAAAAAAAAAAAAAAAAAAAAAAAAAAAAAAAAAAAAAAAAAAAAAAAAAAAAAAAAAAAAAAAAAAAAAAAAAAAAAAAAAAAAAAAAAAAAAAAAAAAAAAAAAAAAAAAAAAAAAAAAAAAAAAAAAAAAAAAAAAAAAAAAAAAAAAAAAAAAAAAAAAAAAAAAAAAAAAAAAAAAAAAAAAAAAAAAAAAAAAAAAAAAAAAAAAAAAAAAAAAAAAAAAAAAAAAAAAAAAAAAAAAAAAAAAAAAAAAAAAAAAAAAAAAAAAAAAAAAAAAAAAAAAAAAAAAAAAAAAAAAAAAAAAAAAAAAAAAAAAAAAAAAAAAAAAAAAAAAAAAAAAAAAAAAAAAAAAAAAAAAAAAAAAAAAAAAAAAAAAAAAAAAAAAAAAAAAAAAAAAAAAAAAAAAAAAAAAAAAAAAAAAAAAAAAAAAAAAAAAAAAAAAAAAAAAAAAAAAAAAAAAAAAAAAAAAAAAAAAAAAAAAAAAAAAAAAAAAAAAAAAAAAAAAAAAAAAAAAAAAAAAAAAAAAAAAAAAAAAAAAAAAAAAAAAAAAAAAAAAAAAAAAAAAAAAAAAAAAAAAAAAAAAAAAAAAAAAAAAAAAAAAAAAAAAAAAAAAAAAAAAAAAAAAAAAAAAAAAAAAAAAAAAAAAAAAAAAAAAAAAAAAAAAAAAAAAAAAAAAAAAAAAAAAAAAAAAAAAAAAAAAAAAAAAAAAAAAAAAAAAAAAAAAAAAAAAAAAAAAAAAAAAAAAAAAAAAAAAAAAAAAAAAAAAAAAAAAAAAAAAAAAAAAAAAAAAAAAAAAAAAAAAAAAAAAAAAAAAAAAAAAAAAAAAAAAAAAAAAAAAAAAAAAAAAAAAAAAAAAAAAAAAAAAAAAAAAAAAAAAAAAAAAAAAAAAAAAAAAAAAAAAAAAAAAAAAAAAAAAAAAAAAAAAAAAAAAAAAAAAAAAAAAAAAAAAAAAAAAAAAAAAAAAAAAAAAAAAAAAAAAAAAAAAAAAAAAAAAAAAAAAAAAAAAAAAAAAAAAAAAAAAAAAAAAAAAAAAAAAAAAAAAAAAAAAAAAAAAAAAAAAAAAAAAAAAAAAAAAAAAAAAAAAAAAAAAAAAAAAAAAAAAAAAAAAAAAAAAAAAAAAAAAAAAAAAAAAAAAAAAAAAAAAAAAAAAAAAAAAAAAAAAAAAAAAAAAAAAAAAAAAAAAAAAAAAAAAAAAAAAAAAAAAAAAAAAAAAAAAAAAAAAAAAAAAAAAAAAAAAAAAAAAAAAAAAAAAAAAAAAAAAAAAAAAAAAAAAAAAAAAAAAAAAAAAAAAAAAAAAAAAAAAAAAAAAAAAAAAAAAAAAAAAAAAAAAAAAAAAAAAAAAAAAAAAAAAAAAAAAAAAAAAAAAAAAAAAAAAAAAAAAAAAAAAAAAAAAAAAAAAAAAAAAAAAAAAAAAAAAAAAAAAAAAAAAAAAAAAAAAAAAAAAAAAAAAAAAAAAAAAAAAAAAAAAAAAAAAAAAAAAAAAAAAAAAAAAAAAAAAAAAAAAAAAAAAAAAAAAAAAAAAAAAAAAAAAAAAAAAAAAAAAAAAAAAAAAAAAAAAAAAAAAAAAAAAAAAAAAAAAAAAAAAAAAAAAAAAAAAAAAAAAAAAAAAAAAAAAAAAAAAAAAAAAAAAAAAAAAAAAAAAAAAAAAAAAAAAAAAAAAAAAAAAAAAAAAAAAAAAAAAAAAAAAAAAAAAAAAAAAAAAAAAAAAAAAAAAAAAAAAAAAAAAAAAAAAAAAAAAAAAAAAAAAAAAAAAAAAAAAAAAAAAAAAAAAAAAAAAAAAAAAAAAAAAAAAAAAAAAAAAAAAAAAAAAAAAAAAAAAAAAAAAAAAAAAAAAAAAAAAAAAAAAAAAAAAAAAAAAAAAAAAAAAAAAAAAAAAAAAAAAAAAAAAAAAAAAAAAAAAAAAAAAAAAAAAAAAAAAAAAAAAAAAAAAAAAAAAAAAAAAAAAAAAAAAAAAAAAAAAAAAAAAAAAAAAAAAAAAAAAAAAAAAAAAAAAAAAAAAAAAAAAAAAAAAAAAAAAAAAAAAAAAAAAAAAAAAAAAAAAAAAAAAAAAAAAAAAAAAAAAAAAAAAAAAAAAAAAAAAAAAAAAAAAAAAAAAAAAAAAAAAAAAAAAAAAAAAAAAAAAAAAAAAAAAAAAAAAAAAAAAAAAAAAAAAAAAAAAAAAAAPZYQJALkv4Cy1hSjb4hBH1rLYK2HIY/m1IcBAgzfWZ1mID9cHeFzIsks4a9tG5n2iLWduUSqbuSkAQtZxnjljRyM8Q=</c2pa:manifest></metadata><defs></defs><g id="_Слой_1-2" data-name="Слой 1"><g><polygon points="132.28 144.81 198.68 343.79 132.28 343.79 65.87 144.81 132.28 144.81"></polygon><path d="M30.37,277.59c41.2-3.02,48.73,58.25,8.52,65.56-45.7,8.31-54.38-62.19-8.52-65.56Z"></path><path d="M387.7,240.32v1.32s-8.88,2.41-8.88,2.41l-15.49,20.39,21.97,39.08c3.34,2.47,7.25,1.61,10.85.18l18.95-63.56c.29-.41,5.39-.73,5.72.49l19.12,63.04,6.2,1.66v1.32h-20.81c-.29-2.03,6.17-1.96,6.2-2.44l-5.74-20.8-21.77.06-5.68,20.25c.2.56.59.6,1.1.7,2.49.51,5.62.71,8.18.9v1.32h-36.75v-1.32s5.75-1.55,5.75-1.55l-19.25-32.06-4.2,5.98-.03,26.01c.27,1.13,7.19.71,7.1,2.94h-22.13v-1.32s6.54-1.2,6.54-1.2l.57-.78v-60.12s-7.11-1.59-7.11-1.59v-1.32h22.13v1.32s-7.06,1.35-7.06,1.35l-.46,32.26,23.86-31.22c.21-.81-.06-.51-.51-.71-1.8-.8-4.37-.9-6.27-1.63l-.26-1.37h18.15ZM415.15,247.39l-.93.62-9.69,33.43h20.81s-10.19-34.04-10.19-34.04Z"></path><path d="M481.55,240.76v16.8h-1.31c-1.98-5.82-4.56-15.33-11.78-16.32-8.58-1.17-14.28,4.21-12.91,12.9,1.81,11.55,26.25,15.43,29.97,29.76,5.45,21-17.27,31.35-31.84,17.44-.97,1.71-2.28,5.32-4.43,5.31v-18.57c.52.04.95-.24,1.36.27,1.06,1.32,2.5,7.18,3.5,9.25,6.95,14.4,30.64,10.63,25.92-8.21-3.9-15.59-31.53-13-29.89-35.13,1.13-15.13,18.12-18.83,28.54-9.96.75,0,1.34-3.89,2.88-3.53Z"></path><path d="M233.21,240.32v1.32s-8.41,1.33-8.41,1.33v61.46c6.41,1.69,13.27.61,19.87.83l6.75-14.7,1.71-.72-1.77,16.8h-41.61v-1.32c1.59-.26,6.78-.36,7.09-1.99l.02-60.1-7.11-1.59v-1.32s23.46,0,23.46,0Z"></path><path d="M281.9,240.32v1.32s-8.41,1.33-8.41,1.33v61.46c6.4,1.67,13.26.64,19.85.81l7.12-15.13,1.36-.28-1.77,16.8h-41.61c.38-2.71,6.66-1.05,7.09-3.31l.02-60.1-7.11-1.59v-1.32s23.46,0,23.46,0Z"></path><path d="M330.16,240.32v1.32s-7.55,1.59-7.55,1.59v60.49c.25.92,7.64.7,7.55,2.92h-23.02c.49-2.46,5.68-1.54,7.27-2.6l.28-60.81-7.55-1.59v-1.32s23.02,0,23.02,0Z"></path><path d="M280.92,328.86c8.23-.97,11.14,10.88,3.63,13.82-10.47,4.1-14.39-12.55-3.63-13.82Z"></path><path d="M479.78,343.34l-1.8-.19c-.73-.5-.61-12.46,0-14.21l1.73-.11,6.71,10.09v-9.51c0-.83,2.21-.83,2.21,0v13.93c-.64-.08-1.58.21-2.12-.09-.82-.46-4.88-9.1-6.73-10.08v10.17Z"></path><path d="M382.61,328.75c4.32.77,4.56,6.91.67,8.65l3.09,5.94c-3.1.97-3.22-3.45-4.84-5.11-1.07-1.09-2.69-.54-4.01-.64v5.75s-2.21-.66-2.21-.66v-13.93c2.22.27,5.21-.37,7.3,0ZM377.52,335.83c2.28-.06,6.35.66,6.5-2.5.17-3.59-4.08-2.77-6.5-2.81v5.31Z"></path><path d="M323.52,343.34v-14.59h6.86c.6,0,2.86,1.34,3.33,1.98,1.82,2.53,1.53,12.61-2.89,12.61h-7.3ZM325.73,341.57c4.97.46,7.1-.15,7.12-5.53.01-5-2.49-6.02-7.12-5.53v11.05Z"></path><path d="M346.86,328.86c3.03-.56,6.56.04,7.44,3.42.42,1.61.41,5.93.02,7.56-1.16,4.88-9.6,4.99-11.03.34-1.03-3.37-.84-10.51,3.57-11.32ZM347.29,330.61c-2.65.79-2.5,6.68-1.99,8.88.68,2.94,6.21,2.94,6.89,0,.86-3.71.59-10.51-4.91-8.88Z"></path><path d="M260.98,328.85c3-.62,6.58.11,7.44,3.42.42,1.61.41,5.93.02,7.56-1.15,4.84-9.62,5.26-11.02-.11-.91-3.49-.87-9.96,3.56-10.87ZM261.41,330.61c-2.9.86-4.21,12.56,2.92,10.86,2.75-.65,2.51-6.64,1.99-8.87-.48-2.08-3.07-2.54-4.91-1.99Z"></path><path d="M390.05,342.32c-2.52-2.31-2.61-12.74,2.32-13.54,7.05-1.14,8.5,3.94,7.68,9.88-.67,4.9-6.88,6.53-10.01,3.66ZM392.89,330.62c-2.9.69-2.63,6.94-1.89,9.21.86,2.67,6.06,2.5,6.8-.78.86-3.86.46-9.7-4.9-8.43Z"></path><path d="M403.2,343.34v-14.59h6.86c.6,0,2.86,1.34,3.33,1.98,1.82,2.53,1.53,12.61-2.89,12.61h-7.3ZM404.97,341.57c7.07.78,7.75-1.24,7.11-7.76-.39-3.96-3.99-3.32-7.11-3.29v11.05Z"></path><path d="M230.99,343.34v-14.59h6.86c.53,0,2.64,1.2,3.09,1.78,2.07,2.69,1.78,12.81-2.65,12.81h-7.3ZM232.77,341.57c6.78.53,7.71-.79,7.1-7.32-.41-4.46-3.49-3.77-7.1-3.74v11.05Z"></path><path d="M466.83,328.85c7.6-1.55,9.09,5.12,7.54,11.07-1.19,4.57-8.94,4.99-10.74.77-1.41-3.31-1.2-10.94,3.2-11.84ZM467.71,330.61c-3.72.83-3.3,9.58-.75,10.73,3.4,1.53,5.46-.8,5.74-3.98.32-3.63-.36-7.79-4.99-6.76Z"></path><path d="M306.69,343.34l-1.7-.06-.9-2.77-6.85-.2c-1.16.4-.7,3.9-3.38,3.03l5.29-14.39c1.06-.44,1.9-.42,2.63.51s4.18,10.17,4.61,11.75c.19.71.4,1.38.3,2.13ZM303.15,338.03l-3.09-7.07-2.22,7.07h5.31Z"></path><path d="M254.9,330.52h-7.53v4.42h6.42c.47,0,.84,1.25.66,1.77h-7.08v4.86h7.53v1.77h-9.74v-14.59h9.08c.47,0,.84,1.25.66,1.77Z"></path><path d="M369.33,328.75c3.48.62,4.96,5.65,2.15,7.9-1.9,1.53-4.96.78-7.25.94v5.75s-2.21,0-2.21,0v-14.59c2.22.27,5.21-.37,7.3,0ZM364.24,335.83c8.99,1.55,8.91-6.77,0-5.31v5.31Z"></path><path d="M426.66,328.75h1.77v11.28c0,2.04-3.57,3.63-5.46,3.59-2.17-.05-5.6-1.54-5.6-4.03v-10.83l2.15.73c.73,4.13-2.4,14.2,5.06,12,.77-.23,2.08-2.13,2.08-2.78v-9.95Z"></path><path d="M310.68,328.75v9.95c0,2.77,4.65,4.01,6.4,1.98,1.56-1.81.18-8.64.74-11.2l2.15-.73v10.83c0,2.46-3.45,4.02-5.61,4.04-1.8.02-5.46-1.63-5.46-3.6v-11.28h1.77Z"></path><path d="M443.04,333.61c-2.78.6-1.94-2.46-4.3-3-3.01-.69-4.74.15-5.02,3.2-.39,4.27-.61,8.84,5.1,7.74,2.37-.45,1.45-3.75,4.21-3.08.24,6.46-10.5,6.96-11.48.63-.5-3.26-.45-9.63,3.76-10.34,3.74-.63,7.68.5,7.72,4.84Z"></path><path d="M212.34,328.82l4.27,11.88c.61-.01,3.13-10.48,3.98-11.51.4-.49,1.79-.62,2-.43.33.31-2.26,7.56-2.65,8.63-.63,1.74-2.09,8.16-4.67,5.53-.5-.51-4.59-12.38-4.65-13.49s.91-.66,1.72-.6Z"></path><polygon points="455.44 328.75 455.44 330.52 451.01 330.52 451.01 343.34 449.24 343.34 449.24 331.18 448.51 330.59 444.8 330.31 444.37 329.42 445.03 328.75 455.44 328.75"></polygon><path d="M225.24,343.34v-14.59l2.15.73c-.24,3.87.54,8.58.08,12.34-.2,1.63-.6,1.62-2.23,1.53Z"></path><polygon points="339.89 328.75 339.89 343.34 338.1 343.15 337.74 329.48 339.89 328.75"></polygon><rect x="458.09" y="328.75" height="14.59"></rect></g></g></svg>